<?xml version="1.0"?>
<svg version="1.1" xmlns="http://www.w3.org/2000/svg" width="200" height="40" style=""><path fill="#eb5823" d="M29.616,23.36l-0.644-2.688s-1.316-0.448-3.136-0.448c-2.94,0-4.62,2.184-4.62,6.86c0,4.536,1.82,6.44,4.76,6.44c2.8,0,5.32-1.96,5.32-1.96l1.54,2.52s-2.94,3.052-7.336,3.052c-5.684,0-8.96-3.416-8.96-9.912c0-6.58,3.696-10.5,9.436-10.5c3.388,0,6.524,1.316,6.524,1.316l-0.14,5.32l-2.744,0z M56.42628,34.42l0,2.38l-8.904,0l0-2.38l2.1-0.756l-0.672-2.044l-6.216,0l-0.7,2.016l2.184,0.784l0,2.38l-8.456,0l0-2.38l2.044-0.784l6.16-16.492l4.48-0.084l6.02,16.576z M48.02628,28.624l-2.1-6.636l-2.212,6.636l4.312,0z M59.49256,36.8l0-2.38l2.1-0.84l0-13.16l-2.1-0.84l0-2.38l6.72-0.14l7.56,12.936l0-9.576l-2.044-0.84l0-2.38l7.98-0.14l0,2.52l-2.1,0.84l0,16.38l-4.676,0l-7.504-12.684l0,9.464l2.184,0.84l0,2.38l-8.12,0z M93.27484,16.724c5.6,0,8.82,3.696,8.82,9.94c0,6.3-3.78,10.5-9.38,10.5s-8.68-3.5-8.68-10.08c0-6.44,3.556-10.36,9.24-10.36z M93.13484,20.224c-2.8,0-4.34,1.736-4.34,6.72c0,4.62,1.26,6.72,4.06,6.72s4.48-1.82,4.48-6.86c0-4.62-1.4-6.58-4.2-6.58z M106.56112,36.8l0-2.38l2.1-0.84l0-13.16l-2.1-0.84l0-2.38l6.44-0.14l2.128,0c4.592,0,7.28,1.904,7.28,5.712c0,2.632-1.26,4.34-3.164,5.292c0.308,0.364,0.728,0.896,1.176,1.82l1.876,3.836l1.904,0.7l0,2.38l-5.18,0l-2.352-5.18c-0.952-2.128-1.204-2.576-2.688-2.576l-0.98,0l0,4.536l2.016,0.84l0,2.38l-8.456,0z M113.00112,26.104l1.596,0c2.212,0,3.5-1.064,3.5-2.94c0-1.596-1.064-2.744-2.8-2.744l-2.296,0l0,5.684z"/><path fill="#178fe6" d=""/></svg>
